<?xml version="1.0" encoding="UTF-8"?>
<svg id="Livello_1" xmlns="http://www.w3.org/2000/svg" version="1.1" xmlns:xlink="http://www.w3.org/1999/xlink" viewBox="0 0 283.46 283.46">
  <!-- Generator: Adobe Illustrator 30.0.0, SVG Export Plug-In . SVG Version: 2.1.1 Build 123)  -->
  <defs>
    <style>
      .st0 {
        fill: url(#Sfumatura_senza_nome_121);
      }

      .st1 {
        fill: #c39593;
        fill-rule: evenodd;
      }

      .st2 {
        fill: url(#Sfumatura_senza_nome_169);
      }
    </style>
    <linearGradient id="Sfumatura_senza_nome_169" data-name="Sfumatura senza nome 169" x1="90.22" y1="141.73" x2="283.46" y2="141.73" gradientUnits="userSpaceOnUse">
      <stop offset="0" stop-color="#899c82"/>
      <stop offset="1" stop-color="#899c82"/>
    </linearGradient>
    <linearGradient id="Sfumatura_senza_nome_121" data-name="Sfumatura senza nome 121" x1="0" y1="141.73" x2="89.42" y2="141.73" gradientUnits="userSpaceOnUse">
      <stop offset="0" stop-color="#899c82"/>
      <stop offset="1" stop-color="#899c82"/>
    </linearGradient>
  </defs>
  <path class="st2" d="M90.22,73.19c1.1-.78,2.98-2.59,5.66-5.43,2.52-2.67,5.27-5.27,8.26-7.79,1.57-1.42,3.14-2.67,4.72-3.78,1.57-1.1,2.98-1.89,4.25-2.36.78-.16,1.57-.24,2.36-.24h.47c.78,0,1.49.32,2.12.94.63,1.89,1.26,4.96,1.89,9.2.78,4.09,1.57,8.65,2.36,13.69.94,7.39,1.81,14.71,2.59,21.94.78,7.24,1.18,11.88,1.18,13.92,1.26-9.28,3.3-16.75,6.13-22.41,2.83-5.5,6.06-9.2,9.67-11.09,6.61-3.78,13.69-1.81,21.24,5.9,7.55,7.71,13.13,20.14,16.75,37.28.78-2.98,1.41-7.47,1.89-13.45.63-5.97,1.57-12.03,2.83-18.17.78-3.46,1.65-6.76,2.6-9.91,1.1-3.15,2.36-5.98,3.78-8.5,1.89-3.3,4.09-5.9,6.6-7.79,2.67-2.04,5.82-3.07,9.44-3.07,5.51,0,10.3,1.34,14.39,4.01,4.09,2.68,7.71,6.37,10.85,11.09,4.87,7.55,8.57,16.91,11.09,28.08,2.52,11.33,4.25,22.89,5.19,34.69,1.1,11.48,1.73,22.5,1.89,33.03,0,10.54.08,19.11.24,25.72.16,3.46.31,6.22.47,8.26.16,2.21.47,3.3.95,3.3,1.73.47,4.25-1.73,7.55-6.6,3.14-4.72,6.29-9.99,9.44-15.81,1.89-3.93,3.62-7.63,5.19-11.09,1.57-3.46,2.67-6.05,3.3-7.79.94.16,1.96.24,3.07.24s2.04.24,2.83.71c-.79,2.52-2.59,7.16-5.43,13.92-2.83,6.77-6.29,13.06-10.38,18.88-2.68,3.94-5.51,7.24-8.49,9.91-2.99,2.52-5.98,3.7-8.97,3.54-7.87-.47-14.47-6.92-19.82-19.35-5.19-12.43-9.52-26.66-12.98-42.71-1.58-6.76-2.91-13.61-4.01-20.53-1.26-6.92-2.44-13.53-3.54-19.82-1.89-11.64-3.54-21.47-4.95-29.5-1.42-8.02-2.75-12.03-4.01-12.03s-2.59,2.6-4.01,7.79c-1.41,5.04-2.83,11.33-4.25,18.88-.79,4.09-1.5,8.34-2.12,12.74-.79,4.57-1.5,9.05-2.12,13.45-1.26,8.65-2.36,16.75-3.3,24.3l-2.12,16.99c-1.73.94-5.43,1.58-11.09,1.89-5.82.16-9.99-1.65-12.5-5.43-.16-1.73-.79-5.82-1.89-12.27-.94-6.45-2.2-13.45-3.78-21-1.73-9.28-3.7-17.93-5.9-25.95-2.21-8.02-4.25-12.04-6.14-12.04-2.36-.15-4.57,3.07-6.61,9.67-2.21,6.45-3.86,14.16-4.95,23.12-.63,4.88-1.1,9.83-1.42,14.86-.32,5.03-.39,9.91-.24,14.63.16,4.56.24,9.36.24,14.39.16,5.03.16,9.99,0,14.86-.16,9.13-.39,17.62-.71,25.48-.47,7.87-1.02,13.53-1.65,16.99-1.1-.78-2.36-1.26-3.78-1.42-1.42,0-2.83.16-4.25.47-4.09.63-8.02,1.97-11.8,4.01-1.41.78-2.6,1.18-3.54,1.18-1.57,0-2.44-1.1-2.6-3.3-.63-5.82-1.34-14.39-2.12-25.72-.63-11.48-1.34-23.83-2.12-37.04l-1.41-20.76c-.32-6.92-.71-13.69-1.18-20.29-.63-12.11-1.26-22.73-1.89-31.85-.47-9.12-.94-15.02-1.41-17.7Z"/>
  <path class="st1" d="M116.37,205.72c-2.05,4.97-3.94,10.22-3.94,10.22-1.87,5.19-3.28,9.66-4.3,13.06-.05.09-.34.6-.97.79-.39.12-.72.06-.79.04-.16-.03-.31-.08-.45-.17-6.6-7.25-17.47-17.36-33.94-25.38-12.62-6.15-17.31-5.61-25.3-11.81-11.7-9.08-23.74-27.37-15.8-43.71.44-.9,6.04-12.71,19.11-16.16,9.75-2.57,26.53,3.78,34.43,11.44,1.76,1.7,1.22,1.98,1.6-.42.45-2.89.25-21.93,15.98-27.72,9.91-3.65,22.18-.72,29.54,6.12,11.99,11.13,12.09,31.65,6.98,43.51-5.32,12.35-15.84,24.86-22.16,40.19Z"/>
  <path class="st0" d="M51.91,91.95c-1.41.32-3.07-.31-4.95-1.89-2.05-1.73-2.99-3.62-2.83-5.66,4.72-1.1,7.47-5.66,8.26-13.68.94-8.18-.71-12.58-4.95-13.21-1.42-.16-4.8,1.26-10.15,4.25-5.35,2.99-9.76,7-13.21,12.03-1.41,2.21-2.52,4.57-3.3,7.08-.63,2.52-.71,5.11-.24,7.79.47,2.04,1.65,4.33,3.54,6.84,2.04,2.36,4.56,4.95,7.55,7.79,5.51,5.35,12.11,11.25,19.82,17.7,7.86,6.6,14.94,13.92,21.24,21.94,5.35,6.61,9.67,13.68,12.98,21.24,2.52,6.13,3.78,12.58,3.78,19.35,0,1.58-.08,3.23-.24,4.95-1.1,11.96-3.78,21.32-8.02,28.08-4.4,6.77-9.52,11.64-15.34,14.63-3.78,1.89-7.71,3.07-11.8,3.54-2.21.31-4.33.47-6.37.47s-4.01-.08-5.9-.24c-7.55-.94-14.24-3.23-20.05-6.84-5.98-3.62-9.6-7.39-10.85-11.33-1.89-5.35-2.68-9.91-2.36-13.69.47-3.78,1.49-6.84,3.07-9.2,2.98-4.4,7-6.68,12.03-6.84,5.03-.16,8.26,1.34,9.67,4.48.16,1.73-.24,3.15-1.18,4.25-.79,1.26-1.57,2.12-2.36,2.6-1.89-1.89-4.48-.94-7.79,2.83s-4.25,7.47-2.83,11.09c.78,1.89,4.4,3.62,10.85,5.19,6.45,1.73,12.35.87,17.7-2.59,2.98-1.89,5.43-4.8,7.31-8.73,1.89-3.93,2.75-9.2,2.59-15.81-.16-5.19-1.73-10.62-4.72-16.28-2.99-5.66-6.61-11.4-10.85-17.22-2.83-3.93-5.82-7.79-8.96-11.56-2.99-3.93-6.06-7.94-9.2-12.03-5.66-7.23-10.78-14.63-15.34-22.18-4.57-7.39-7.24-14.78-8.02-22.18-.32-2.04-.47-4.01-.47-5.9,0-3.3.39-6.45,1.18-9.44,1.1-4.56,2.91-8.57,5.43-12.03,4.72-6.45,11.17-10.62,19.35-12.5,2.36-.47,4.8-.71,7.31-.71,5.82,0,11.72,1.58,17.7,4.72,2.51,1.41,4.64,3.15,6.37,5.19,1.57,2.21,2.83,4.64,3.78,7.31,1.42,4.72,1.34,9.6-.24,14.63-1.41,5.19-4.4,9.13-8.96,11.8Z"/>
</svg>