<?xml version="1.0" encoding="UTF-8"?>
<svg id="Livello_1" xmlns="http://www.w3.org/2000/svg" version="1.1" viewBox="0 0 56.29 32.92">
  <!-- Generator: Adobe Illustrator 30.0.0, SVG Export Plug-In . SVG Version: 2.1.1 Build 123)  -->
  <defs>
    <style>
      .st0 {
        fill: #be1622;
        fill-rule: evenodd;
      }

      .st1 {
        fill: #fff;
      }
    </style>
  </defs>
  <path class="st1" d="M22.78,5.03c.19-.14.53-.46,1-.96.44-.47.93-.93,1.45-1.37.28-.25.55-.47.83-.66.28-.19.53-.33.75-.42.14-.03.28-.04.42-.04h.08c.14,0,.26.06.37.17.11.33.22.87.33,1.62.14.72.28,1.52.42,2.41.17,1.3.32,2.59.46,3.86.14,1.27.21,2.09.21,2.45.22-1.63.58-2.95,1.08-3.95.5-.97,1.07-1.62,1.7-1.95,1.16-.66,2.41-.32,3.74,1.04,1.33,1.36,2.31,3.54,2.95,6.56.14-.53.25-1.31.33-2.37.11-1.05.28-2.12.5-3.2.14-.61.29-1.19.46-1.74.19-.55.42-1.05.66-1.5.33-.58.72-1.04,1.16-1.37.47-.36,1.02-.54,1.66-.54.97,0,1.81.24,2.53.71.72.47,1.36,1.12,1.91,1.95.86,1.33,1.51,2.98,1.95,4.94.44,1.99.75,4.03.91,6.11.19,2.02.3,3.96.33,5.81,0,1.86.01,3.36.04,4.53.03.61.06,1.09.08,1.45.03.39.08.58.17.58.3.08.75-.3,1.33-1.16.55-.83,1.11-1.76,1.66-2.78.33-.69.64-1.34.91-1.95.28-.61.47-1.07.58-1.37.17.03.35.04.54.04s.36.04.5.12c-.14.44-.46,1.26-.96,2.45-.5,1.19-1.11,2.3-1.83,3.32-.47.69-.97,1.27-1.5,1.74-.53.44-1.05.65-1.58.62-1.38-.08-2.55-1.22-3.49-3.41-.91-2.19-1.68-4.69-2.28-7.52-.28-1.19-.51-2.4-.71-3.61-.22-1.22-.43-2.38-.62-3.49-.33-2.05-.62-3.78-.87-5.19-.25-1.41-.48-2.12-.71-2.12s-.46.46-.71,1.37c-.25.89-.5,1.99-.75,3.32-.14.72-.26,1.47-.37,2.24-.14.8-.26,1.59-.37,2.37-.22,1.52-.42,2.95-.58,4.28l-.37,2.99c-.3.17-.96.28-1.95.33-1.02.03-1.76-.29-2.2-.96-.03-.3-.14-1.02-.33-2.16-.17-1.14-.39-2.37-.66-3.7-.3-1.63-.65-3.16-1.04-4.57-.39-1.41-.75-2.12-1.08-2.12-.42-.03-.8.54-1.16,1.7-.39,1.14-.68,2.49-.87,4.07-.11.86-.19,1.73-.25,2.62-.06.89-.07,1.74-.04,2.58.03.8.04,1.65.04,2.53.03.89.03,1.76,0,2.62-.03,1.61-.07,3.1-.12,4.49-.08,1.38-.18,2.38-.29,2.99-.19-.14-.42-.22-.66-.25-.25,0-.5.03-.75.08-.72.11-1.41.35-2.08.71-.25.14-.46.21-.62.21-.28,0-.43-.19-.46-.58-.11-1.02-.24-2.53-.37-4.53-.11-2.02-.24-4.2-.37-6.52l-.25-3.66c-.06-1.22-.12-2.41-.21-3.57-.11-2.13-.22-4-.33-5.61-.08-1.61-.17-2.64-.25-3.12Z"/>
  <path class="st0" d="M23.35,24.21c-.36.87-.69,1.8-.69,1.8-.33.91-.58,1.7-.76,2.3,0,.02-.06.11-.17.14-.07.02-.13.01-.14,0-.03,0-.05-.01-.08-.03-1.16-1.28-3.08-3.06-5.97-4.47-2.22-1.08-3.05-.99-4.45-2.08-2.06-1.6-4.18-4.82-2.78-7.69.08-.16,1.06-2.24,3.36-2.85,1.72-.45,4.67.66,6.06,2.01.31.3.22.35.28-.07.08-.51.04-3.86,2.81-4.88,1.74-.64,3.91-.13,5.2,1.08,2.11,1.96,2.13,5.57,1.23,7.66s-2.79,4.38-3.9,7.07Z"/>
  <path class="st1" d="M9.14,7.69c-.25.06-.54-.06-.87-.33-.36-.3-.53-.64-.5-1,.83-.19,1.31-1,1.45-2.41.17-1.44-.12-2.22-.87-2.33-.25-.03-.85.22-1.79.75-.94.53-1.72,1.23-2.33,2.12-.25.39-.44.8-.58,1.25-.11.44-.12.9-.04,1.37.08.36.29.76.62,1.2.36.42.8.87,1.33,1.37.97.94,2.13,1.98,3.49,3.12,1.38,1.16,2.63,2.45,3.74,3.86.94,1.16,1.7,2.41,2.28,3.74.44,1.08.66,2.22.66,3.41,0,.28-.01.57-.04.87-.19,2.1-.66,3.75-1.41,4.94-.78,1.19-1.68,2.05-2.7,2.58-.66.33-1.36.54-2.08.62-.39.06-.76.08-1.12.08s-.71-.01-1.04-.04c-1.33-.17-2.51-.57-3.53-1.2-1.05-.64-1.69-1.3-1.91-1.99-.33-.94-.47-1.74-.42-2.41.08-.66.26-1.2.54-1.62.53-.77,1.23-1.18,2.12-1.2.89-.03,1.45.24,1.7.79.03.31-.04.55-.21.75-.14.22-.28.37-.42.46-.33-.33-.79-.17-1.37.5s-.75,1.32-.5,1.95c.14.33.77.64,1.91.91,1.14.31,2.17.15,3.12-.46.53-.33.96-.84,1.29-1.54.33-.69.48-1.62.46-2.78-.03-.91-.3-1.87-.83-2.87-.53-1-1.16-2.01-1.91-3.03-.5-.69-1.02-1.37-1.58-2.04-.53-.69-1.07-1.4-1.62-2.12-1-1.27-1.9-2.58-2.7-3.9C.69,9.75.22,8.45.08,7.15.03,6.79,0,6.44,0,6.11,0,5.53.07,4.97.21,4.45c.19-.8.51-1.51.96-2.12C1.99,1.19,3.13.46,4.57.13,4.98.05,5.41,0,5.86,0,6.88,0,7.92.28,8.97.83c.44.25.82.55,1.12.91.28.39.5.82.66,1.29.25.83.24,1.69-.04,2.58-.25.91-.78,1.61-1.58,2.08Z"/>
</svg>