<?xml version="1.0" encoding="UTF-8"?>
<svg id="Livello_1" xmlns="http://www.w3.org/2000/svg" version="1.1" viewBox="0 0 187.91 32.92">
  <!-- Generator: Adobe Illustrator 30.0.0, SVG Export Plug-In . SVG Version: 2.1.1 Build 123)  -->
  <defs>
    <style>
      .st0 {
        fill: #be1622;
        fill-rule: evenodd;
      }

      .st1 {
        fill: #fff;
      }
    </style>
  </defs>
  <g>
    <path class="st1" d="M84.78,5.03c.19-.14.53-.46,1-.96.44-.47.93-.93,1.45-1.37.28-.25.55-.47.83-.66.28-.19.53-.33.75-.42.14-.03.28-.04.42-.04h.08c.14,0,.26.06.37.17.11.33.22.87.33,1.62.14.72.28,1.52.42,2.41.17,1.3.32,2.59.46,3.86.14,1.27.21,2.09.21,2.45.22-1.63.58-2.95,1.08-3.95.5-.97,1.07-1.62,1.7-1.95,1.16-.66,2.41-.32,3.74,1.04,1.33,1.36,2.31,3.54,2.95,6.56.14-.53.25-1.31.33-2.37.11-1.05.28-2.12.5-3.2.14-.61.29-1.19.46-1.74.19-.55.42-1.05.66-1.5.33-.58.72-1.04,1.16-1.37.47-.36,1.02-.54,1.66-.54.97,0,1.81.24,2.53.71.72.47,1.36,1.12,1.91,1.95.86,1.33,1.51,2.98,1.95,4.94.44,1.99.75,4.03.91,6.11.19,2.02.3,3.96.33,5.81,0,1.86.01,3.36.04,4.53.03.61.06,1.09.08,1.45.03.39.08.58.17.58.3.08.75-.3,1.33-1.16.55-.83,1.11-1.76,1.66-2.78.33-.69.64-1.34.91-1.95.28-.61.47-1.07.58-1.37.17.03.35.04.54.04s.36.04.5.12c-.14.44-.46,1.26-.96,2.45-.5,1.19-1.11,2.3-1.83,3.32-.47.69-.97,1.27-1.5,1.74-.53.44-1.05.65-1.58.62-1.38-.08-2.55-1.22-3.49-3.41-.91-2.19-1.68-4.69-2.28-7.52-.28-1.19-.51-2.4-.71-3.61-.22-1.22-.43-2.38-.62-3.49-.33-2.05-.62-3.78-.87-5.19-.25-1.41-.48-2.12-.71-2.12s-.46.46-.71,1.37c-.25.89-.5,1.99-.75,3.32-.14.72-.26,1.47-.37,2.24-.14.8-.26,1.59-.37,2.37-.22,1.52-.42,2.95-.58,4.28l-.37,2.99c-.3.17-.96.28-1.95.33-1.02.03-1.76-.29-2.2-.96-.03-.3-.14-1.02-.33-2.16-.17-1.14-.39-2.37-.66-3.7-.3-1.63-.65-3.16-1.04-4.57-.39-1.41-.75-2.12-1.08-2.12-.42-.03-.8.54-1.16,1.7-.39,1.14-.68,2.49-.87,4.07-.11.86-.19,1.73-.25,2.62-.06.89-.07,1.74-.04,2.58.03.8.04,1.65.04,2.53.03.89.03,1.76,0,2.62-.03,1.61-.07,3.1-.12,4.49-.08,1.38-.18,2.38-.29,2.99-.19-.14-.42-.22-.66-.25-.25,0-.5.03-.75.08-.72.11-1.41.35-2.08.71-.25.14-.46.21-.62.21-.28,0-.43-.19-.46-.58-.11-1.02-.24-2.53-.37-4.53-.11-2.02-.24-4.2-.37-6.52l-.25-3.66c-.06-1.22-.12-2.41-.21-3.57-.11-2.13-.22-4-.33-5.61-.08-1.61-.17-2.64-.25-3.12Z"/>
    <path class="st1" d="M122.16,18.99c.08.11.1.25.04.42-.03.19-.12.29-.29.29-.55-.33-1.01-.51-1.37-.54-.36,0-.65.12-.87.37-.28.28-.46.68-.54,1.2-.11.55-.15,1.12-.12,1.7.03.91.15,1.77.37,2.58.22.8.44,1.22.66,1.25.28.08.58-.28.91-1.08.33-.77.64-1.62.91-2.53.22-.75.42-1.44.58-2.08.17-.64.26-1.02.29-1.16.25-1.27.82-1.97,1.7-2.08.19-.06.39-.08.58-.08.53,0,.83.15.91.46.08.19.14.76.17,1.7,0,.94.03,1.98.08,3.12.03,1.38.11,2.67.25,3.86.17,1.22.43,1.84.79,1.87.36.03.76-.36,1.2-1.16.47-.77.9-1.63,1.29-2.58.25-.61.47-1.19.66-1.74.19-.58.33-1.01.42-1.29.17-.06.33-.08.5-.08s.33.04.5.12c-.14.53-.39,1.36-.75,2.49-.36,1.11-.82,2.15-1.37,3.12-.36.64-.76,1.18-1.2,1.62-.42.39-.86.58-1.33.58h-.08c-1.02-.06-1.87-.4-2.53-1.04-.64-.61-1.14-1.26-1.5-1.95-.19-.36-.35-.69-.46-1-.11-.3-.19-.55-.25-.75-.14.58-.37,1.12-.71,1.62-.33.53-1.01.79-2.04.79-.58-.03-1.07-.15-1.45-.37-.39-.22-.69-.53-.91-.91-.25-.42-.4-.89-.46-1.41-.03-.22-.04-.44-.04-.66,0-.3.03-.61.08-.91.14-1.02.48-1.99,1.04-2.91.55-.91,1.19-1.48,1.91-1.7.39-.11.77-.11,1.16,0,.42.14.83.43,1.25.87Z"/>
    <path class="st1" d="M132.62,21.35c.55-.08,1.31.01,2.28.29.19.14.33.33.42.58.11.22.18.48.21.79.06.42.07.89.04,1.41l-.17,1.5c-.14.97-.25,1.83-.33,2.58-.08.78.03,1.19.33,1.25.36.03.84-.36,1.45-1.16.64-.8,1.26-1.72,1.87-2.74.39-.69.73-1.38,1.04-2.08.3-.66.53-1.25.66-1.74.22-.03.42-.04.58-.04.19,0,.36.08.5.25-.19.55-.42,1.16-.66,1.83s-.55,1.33-.91,1.99c-.64,1.22-1.41,2.33-2.33,3.32-.91.97-1.95,1.47-3.12,1.5h-.04c-.8,0-1.44-.12-1.91-.37-.5-.22-.87-.54-1.12-.96-.55-.94-.6-2.15-.12-3.61.47-1.44,1.01-2.58,1.62-3.41-.22-.03-.68-.01-1.37.04-.69.08-1.34,0-1.95-.25-.33-.14-.61-.35-.83-.62-.25-.28-.4-.66-.46-1.16-.08-.53-.12-1.01-.12-1.45,0-1.05.21-1.83.62-2.33.47-.55,1.11-.83,1.91-.83.22,0,.46.03.71.08.33.06.61.18.83.37.19.19.35.43.46.71.28.83.19,1.83-.25,2.99-.19.5-.39.91-.58,1.25.25.06.5.07.75.04ZM131.5,19.73c.19-.61.32-1.22.37-1.83.06-.58-.04-.91-.29-1-.28-.06-.54.5-.79,1.66-.28,1.19-.28,1.9,0,2.12.08.08.17.15.25.21.17-.33.32-.72.46-1.16Z"/>
    <path class="st1" d="M145.83,16.87h-1.83c.08,1.02.18,2.1.29,3.24.06.86.14,1.72.25,2.58.08.83.17,1.65.25,2.45.19,1.41.39,2.6.58,3.57.22.94.47,1.4.75,1.37.5-.03,1.07-.51,1.7-1.45.61-.94,1.16-1.97,1.66-3.07.33-.72.62-1.4.87-2.04.25-.64.43-1.11.54-1.41.14,0,.3.01.5.04.17,0,.32.07.46.21-.08.42-.39,1.29-.91,2.62-.53,1.33-1.15,2.58-1.87,3.74-.5.78-1,1.41-1.5,1.91-.47.44-.93.66-1.37.66h-.21c-1.58-.25-2.85-.77-3.82-1.58-.97-.83-1.69-1.83-2.16-2.99-.39-.97-.65-2.01-.79-3.12-.08-.77-.12-1.55-.12-2.33,0-.36.01-.71.04-1.04.06-1.25.18-2.46.37-3.65-.72-.03-1.47-.06-2.24-.08-.33-.03-.5-.07-.5-.12-.03-.03.06-.08.25-.17.47-.19.79-.33.96-.42.08-.14.4-.22.96-.25h.79c.11-.44.22-.89.33-1.33.5-1.91.93-3.28,1.29-4.11.17-.36.35-.54.54-.54.17,0,.35.15.54.46.42.61.8,1.05,1.16,1.33.06.42.14,1.47.25,3.16.03.33.04.66.04,1,.25.06.51.12.79.21.58.22,1.14.33,1.66.33.03.11.04.25.04.42v.08c-.03.22-.21.33-.54.33Z"/>
    <path class="st1" d="M150.44,21.44c.17-.47.4-.84.71-1.12.3-.3.62-.51.96-.62.39-.17.76-.25,1.12-.25.22,0,.44.03.66.08.58.17.89.42.91.75.03.22,0,.69-.08,1.41-.08.75-.15,1.56-.21,2.45-.06,1.05-.07,2.04-.04,2.95.03.91.22,1.37.58,1.37s.83-.37,1.41-1.12c.58-.72,1.13-1.51,1.66-2.37.36-.58.68-1.14.96-1.66.28-.53.47-.94.58-1.25.17-.03.35-.03.54,0,.17,0,.33.06.5.17-.22.5-.62,1.3-1.2,2.41-.55,1.08-1.19,2.08-1.91,2.99-.47.58-.97,1.07-1.5,1.45-.39.25-.76.37-1.12.37-.11,0-.22-.01-.33-.04-2.66-.64-4.21-1.63-4.65-2.99-.17-.53-.25-1.09-.25-1.7,0-.97.23-2.06.71-3.28ZM152.19,16.33c-.03-.06-.03-.11,0-.17,0-.42.29-.72.87-.91.36-.11.69-.17,1-.17.25,0,.48.03.71.08.44.17.73.58.87,1.25.03.19.04.35.04.46,0,.33-.1.5-.29.5-.03,0-.06-.01-.08-.04-.69-.14-1.37-.23-2.04-.29-.67-.03-1.02-.26-1.08-.71Z"/>
    <path class="st1" d="M162.99,23.93c.06-.44.14-1.3.25-2.58.11-1.27.42-2.3.91-3.07.17-.25.36-.46.58-.62.22-.14.48-.22.79-.25h.04c.61,0,1.13.15,1.58.46.44.3.82.71,1.12,1.2.28.44.5.96.66,1.54.17.55.3,1.14.42,1.74.22,1.41.36,2.73.42,3.95.03,1.22.17,1.83.42,1.83.22,0,.55-.37,1-1.12.44-.75.86-1.55,1.25-2.41.25-.55.47-1.07.67-1.54.19-.5.32-.86.37-1.08.14-.03.3-.06.5-.08.17-.03.35.01.54.12-.11.42-.37,1.12-.79,2.12-.39,1-.86,1.93-1.41,2.78-.36.58-.73,1.08-1.12,1.5-.42.39-.82.58-1.2.58-.66-.03-1.22-.19-1.66-.5-.44-.3-.8-.71-1.08-1.2-.28-.47-.5-1-.66-1.58-.17-.55-.29-1.14-.37-1.74-.22-1.41-.33-2.71-.33-3.9-.03-1.22-.18-1.81-.46-1.79-.42.06-.71.72-.87,1.99-.17,1.27-.28,2.63-.33,4.07-.06,1.19-.08,2.26-.08,3.2-.03.97-.06,1.54-.08,1.7-.14.25-.39.36-.75.33-.25,0-.53-.04-.83-.12-.83-.28-1.33-.62-1.5-1.04,0-.17-.12-.58-.37-1.25-.22-.69-.48-1.45-.79-2.28-.36-1-.71-1.98-1.04-2.95-.33-.97-.53-1.58-.58-1.83.22-.25.77-.51,1.66-.79.91-.28,1.62-.14,2.12.42.19.3.39.98.58,2.04.19,1.02.35,1.74.46,2.16Z"/>
    <path class="st1" d="M178.27,18.99c.08.11.1.25.04.42-.03.19-.12.29-.29.29-.55-.33-1.01-.51-1.37-.54-.36,0-.65.12-.87.37-.28.28-.46.68-.54,1.2-.11.55-.15,1.12-.12,1.7.03.91.15,1.77.37,2.58.22.8.44,1.22.66,1.25.28.08.58-.28.91-1.08.33-.77.64-1.62.91-2.53.22-.75.42-1.44.58-2.08.17-.64.26-1.02.29-1.16.25-1.27.82-1.97,1.7-2.08.19-.06.39-.08.58-.08.53,0,.83.15.91.46.08.19.14.76.17,1.7,0,.94.03,1.98.08,3.12.03,1.38.11,2.67.25,3.86.17,1.22.43,1.84.79,1.87.36.03.76-.36,1.2-1.16.47-.77.9-1.63,1.29-2.58.25-.61.47-1.19.66-1.74.19-.58.33-1.01.42-1.29.17-.06.33-.08.5-.08s.33.04.5.12c-.14.53-.39,1.36-.75,2.49-.36,1.11-.82,2.15-1.37,3.12-.36.64-.76,1.18-1.2,1.62-.42.39-.86.58-1.33.58h-.08c-1.02-.06-1.87-.4-2.53-1.04-.64-.61-1.14-1.26-1.5-1.95-.19-.36-.35-.69-.46-1-.11-.3-.19-.55-.25-.75-.14.58-.37,1.12-.71,1.62-.33.53-1.01.79-2.04.79-.58-.03-1.07-.15-1.45-.37-.39-.22-.69-.53-.91-.91-.25-.42-.4-.89-.46-1.41-.03-.22-.04-.44-.04-.66,0-.3.03-.61.08-.91.14-1.02.48-1.99,1.04-2.91.55-.91,1.19-1.48,1.91-1.7.39-.11.77-.11,1.16,0,.42.14.83.43,1.25.87Z"/>
  </g>
  <path class="st0" d="M85.35,24.21c-.36.87-.69,1.8-.69,1.8-.33.91-.58,1.7-.76,2.3,0,.02-.06.11-.17.14-.07.02-.13.01-.14,0-.03,0-.05-.01-.08-.03-1.16-1.28-3.08-3.06-5.97-4.47-2.22-1.08-3.05-.99-4.45-2.08-2.06-1.6-4.18-4.82-2.78-7.69.08-.16,1.06-2.24,3.36-2.85,1.72-.45,4.67.66,6.06,2.01.31.3.22.35.28-.07.08-.51.04-3.86,2.81-4.88,1.74-.64,3.91-.13,5.2,1.08,2.11,1.96,2.13,5.57,1.23,7.66s-2.79,4.38-3.9,7.07Z"/>
  <g>
    <path class="st1" d="M9.14,7.69c-.25.06-.54-.06-.87-.33-.36-.3-.53-.64-.5-1,.83-.19,1.31-1,1.45-2.41.17-1.44-.12-2.22-.87-2.33-.25-.03-.85.22-1.79.75-.94.53-1.72,1.23-2.33,2.12-.25.39-.44.8-.58,1.25-.11.44-.12.9-.04,1.37.08.36.29.76.62,1.2.36.42.8.87,1.33,1.37.97.94,2.13,1.98,3.49,3.12,1.38,1.16,2.63,2.45,3.74,3.86.94,1.16,1.7,2.41,2.28,3.74.44,1.08.66,2.22.66,3.41,0,.28-.01.57-.04.87-.19,2.1-.66,3.75-1.41,4.94-.78,1.19-1.68,2.05-2.7,2.58-.66.33-1.36.54-2.08.62-.39.06-.76.08-1.12.08s-.71-.01-1.04-.04c-1.33-.17-2.51-.57-3.53-1.2-1.05-.64-1.69-1.3-1.91-1.99-.33-.94-.47-1.74-.42-2.41.08-.66.26-1.2.54-1.62.53-.77,1.23-1.18,2.12-1.2.89-.03,1.45.24,1.7.79.03.31-.04.55-.21.75-.14.22-.28.37-.42.46-.33-.33-.79-.17-1.37.5s-.75,1.32-.5,1.95c.14.33.77.64,1.91.91,1.14.31,2.17.15,3.12-.46.53-.33.96-.84,1.29-1.54.33-.69.48-1.62.46-2.78-.03-.91-.3-1.87-.83-2.87-.53-1-1.16-2.01-1.91-3.03-.5-.69-1.02-1.37-1.58-2.04-.53-.69-1.07-1.4-1.62-2.12-1-1.27-1.9-2.58-2.7-3.9C.69,9.75.22,8.45.08,7.15.03,6.79,0,6.44,0,6.11,0,5.53.07,4.97.21,4.45c.19-.8.51-1.51.96-2.12C1.99,1.19,3.13.46,4.57.13,4.98.05,5.41,0,5.86,0,6.88,0,7.92.28,8.97.83c.44.25.82.55,1.12.91.28.39.5.82.66,1.29.25.83.24,1.69-.04,2.58-.25.91-.78,1.61-1.58,2.08Z"/>
    <path class="st1" d="M18.03,21.44c.17-.47.4-.84.71-1.12.3-.3.62-.51.96-.62.39-.17.76-.25,1.12-.25.22,0,.44.03.66.08.58.17.89.42.91.75.03.22,0,.69-.08,1.41-.08.75-.15,1.56-.21,2.45-.06,1.05-.07,2.04-.04,2.95.03.91.22,1.37.58,1.37s.83-.37,1.41-1.12c.58-.72,1.13-1.51,1.66-2.37.36-.58.68-1.14.96-1.66.28-.53.47-.94.58-1.25.17-.03.35-.03.54,0,.17,0,.33.06.5.17-.22.5-.62,1.3-1.2,2.41-.55,1.08-1.19,2.08-1.91,2.99-.47.58-.97,1.07-1.5,1.45-.39.25-.76.37-1.12.37-.11,0-.22-.01-.33-.04-2.66-.64-4.21-1.63-4.65-2.99-.17-.53-.25-1.09-.25-1.7,0-.97.23-2.06.71-3.28ZM19.77,16.33c-.03-.06-.03-.11,0-.17,0-.42.29-.72.87-.91.36-.11.69-.17,1-.17.25,0,.48.03.71.08.44.17.73.58.87,1.25.03.19.04.35.04.46,0,.33-.1.5-.29.5-.03,0-.06-.01-.08-.04-.69-.14-1.37-.23-2.04-.29-.67-.03-1.02-.26-1.08-.71Z"/>
    <path class="st1" d="M27.25,18.74c.28-.28.89-.53,1.83-.75.3-.08.57-.12.79-.12.55,0,.97.17,1.25.5v1.79c-.03.61-.06,1.15-.08,1.62.33-.8.68-1.38,1.04-1.74.39-.36.76-.57,1.12-.62.69-.08,1.29.28,1.79,1.08.5.83.71,1.8.62,2.91.28-.86.6-1.45.96-1.79.36-.33,1.05-.43,2.08-.29.61.08,1.09.26,1.45.54.36.31.62.66.79,1.08.14.33.22.68.25,1.04.03.39.04.76.04,1.12-.03.69-.08,1.3-.17,1.83-.11.53-.07.8.12.83.22.03.58-.28,1.08-.91.5-.64.98-1.36,1.45-2.16.3-.53.58-1.05.83-1.58.22-.53.39-.97.5-1.33.11,0,.26-.01.46-.04.17,0,.32.04.46.12-.19.66-.57,1.63-1.12,2.91-.58,1.27-1.3,2.28-2.16,3.03-.39.33-.79.58-1.2.75-.42.17-.84.21-1.29.12-.39-.06-.71-.19-.96-.42-.25-.22-.46-.5-.62-.83-.17-.33-.29-.71-.37-1.12s-.15-.83-.21-1.25c-.08-.77-.14-1.47-.17-2.08-.06-.61-.21-.91-.46-.91s-.48.29-.71.87c-.22.58-.42,1.2-.58,1.87-.17.58-.31,1.09-.42,1.54-.14.47-.25.76-.33.87-.28.44-.66.61-1.16.5-.5-.11-.85-.4-1.04-.87.03-.19.06-.57.08-1.12.03-.58.04-1.2.04-1.87-.03-.83-.08-1.59-.17-2.28-.08-.72-.26-1.09-.54-1.12-.19-.06-.4.39-.62,1.33-.22.91-.43,1.97-.62,3.16-.11.61-.21,1.23-.29,1.87-.08.64-.15,1.22-.21,1.74-.33.61-.89.91-1.66.91h-.17c-.86-.06-1.4-.35-1.62-.87-.22-.58-.39-1.2-.5-1.87-.11-.67-.18-1.33-.21-1.99v-.71c0-1,.07-1.94.21-2.82.17-1.11.3-1.92.42-2.45Z"/>
    <path class="st1" d="M47.85,17.99c.19-.06.37-.08.54-.08.42,0,.72.21.91.62.06.17.11.3.17.42.3-.19.69-.25,1.16-.17.69.14,1.22.76,1.58,1.87.36,1.11.51,2.3.46,3.57.72-.03,1.38-.3,1.99-.83.72-.61,1.16-1.23,1.33-1.87.14-.03.28-.03.42,0,.17.03.32.06.46.08-.17.75-.73,1.54-1.7,2.37-.83.72-1.69,1.09-2.58,1.12-.06.55-.17,1.09-.33,1.62-.22.78-.55,1.4-1,1.87-.28.28-.6.48-.96.62-.19.08-.42.12-.66.12-.17,0-.35-.03-.54-.08-2.19-.44-3.74-1.37-4.65-2.78-.64-.91-.96-1.85-.96-2.82,0-.5.08-1,.25-1.5.25-.8.72-1.56,1.41-2.28.69-.72,1.59-1.34,2.7-1.87ZM47.89,22.27c-.19.53-.33,1.07-.42,1.62-.08.58-.11,1.12-.08,1.62.06.97.28,1.76.66,2.37.39.64.91.86,1.58.66.22-.06.43-.5.62-1.33.19-.77.35-1.65.46-2.62-.42-.22-.76-.48-1.04-.79-.28-.3-.5-.62-.66-.96-.14-.36-.25-.72-.33-1.08-.06-.3-.08-.58-.08-.83-.31.42-.54.86-.71,1.33ZM51.01,20.85c0-1.08-.15-1.52-.46-1.33-.22.17-.39.36-.5.58-.11.19-.17.42-.17.66-.08.72.15,1.45.71,2.2.08.14.18.28.29.42.08-.91.12-1.76.12-2.53Z"/>
    <path class="st1" d="M59.56,23.93c.06-.44.14-1.3.25-2.58.11-1.27.42-2.3.91-3.07.17-.25.36-.46.58-.62.22-.14.48-.22.79-.25h.04c.61,0,1.13.15,1.58.46.44.3.82.71,1.12,1.2.28.44.5.96.66,1.54.17.55.3,1.14.42,1.74.22,1.41.36,2.73.42,3.95.03,1.22.17,1.83.42,1.83.22,0,.55-.37,1-1.12.44-.75.86-1.55,1.25-2.41.25-.55.47-1.07.67-1.54.19-.5.32-.86.37-1.08.14-.03.3-.06.5-.08.17-.03.35.01.54.12-.11.42-.37,1.12-.79,2.12-.39,1-.86,1.93-1.41,2.78-.36.58-.73,1.08-1.12,1.5-.42.39-.82.58-1.2.58-.66-.03-1.22-.19-1.66-.5-.44-.3-.8-.71-1.08-1.2-.28-.47-.5-1-.66-1.58-.17-.55-.29-1.14-.37-1.74-.22-1.41-.33-2.71-.33-3.9-.03-1.22-.18-1.81-.46-1.79-.42.06-.71.72-.87,1.99-.17,1.27-.28,2.63-.33,4.07-.06,1.19-.08,2.26-.08,3.2-.03.97-.06,1.54-.08,1.7-.14.25-.39.36-.75.33-.25,0-.53-.04-.83-.12-.83-.28-1.33-.62-1.5-1.04,0-.17-.12-.58-.37-1.25-.22-.69-.48-1.45-.79-2.28-.36-1-.71-1.98-1.04-2.95-.33-.97-.53-1.58-.58-1.83.22-.25.77-.51,1.66-.79.91-.28,1.62-.14,2.12.42.19.3.39.98.58,2.04.19,1.02.35,1.74.46,2.16Z"/>
    <path class="st1" d="M73.39,27.54c.17.83.64,1.27,1.41,1.33.47.03,1-.15,1.58-.54.55-.39,1.11-.89,1.66-1.5.83-.91,1.56-1.9,2.2-2.95.66-1.08,1.05-1.84,1.16-2.28.19-.03.37-.03.54,0,.19,0,.36.07.5.21-.11.47-.54,1.36-1.29,2.66-.72,1.3-1.63,2.48-2.74,3.53-.72.72-1.5,1.29-2.33,1.7-.61.31-1.2.46-1.79.46-.28,0-.54-.03-.79-.08-1.47-.3-2.59-.75-3.36-1.33-.8-.58-1.33-1.23-1.58-1.95-.17-.44-.26-.9-.29-1.37,0-.67.18-1.36.54-2.08.58-1.22,1.41-2.24,2.49-3.07.58-.47,1.22-.84,1.91-1.12.66-.28,1.34-.44,2.04-.5h.08c.67,0,1.09.35,1.29,1.04.19.72.14,1.5-.17,2.33-.14.36-.32.71-.54,1.04-.22.33-.5.62-.83.87-.33.28-.73.5-1.2.66-.17.06-.33.11-.5.17-.17,1.02-.17,1.95,0,2.78ZM74.27,22.85c.66-.53,1.12-1.08,1.37-1.66.28-.61.25-1.02-.08-1.25-.25-.17-.62.28-1.12,1.33-.31.64-.54,1.29-.71,1.95.19-.11.37-.23.54-.37Z"/>
  </g>
</svg>